<svg width="99" height="99" viewBox="0 0 99 99" fill="none" xmlns="http://www.w3.org/2000/svg">
<path d="M3.79297 49.2912C3.79297 58.2899 6.46139 67.0865 11.4608 74.5686C16.4602 82.0508 23.5661 87.8824 31.8798 91.3261C40.1935 94.7697 49.3417 95.6707 58.1674 93.9152C66.9932 92.1596 75.1002 87.8263 81.4633 81.4633C87.8263 75.1002 92.1596 66.9932 93.9152 58.1674C95.6707 49.3417 94.7697 40.1935 91.3261 31.8798C87.8824 23.5661 82.0508 16.4602 74.5686 11.4608C67.0865 6.46139 58.2899 3.79297 49.2912 3.79297" stroke="white" stroke-width="7.58304" stroke-linecap="round" stroke-linejoin="round"/>
<path d="M3.79297 8.84766V34.1244H29.0698" stroke="white" stroke-width="7.58304" stroke-linecap="round" stroke-linejoin="round"/>
<path d="M49.293 24.0156V49.2924L64.459 59.4031" stroke="white" stroke-width="7.58304" stroke-linecap="round" stroke-linejoin="round"/>
</svg>
