<svg width="137" height="137" viewBox="0 0 137 137" fill="none" xmlns="http://www.w3.org/2000/svg">
<path d="M5.23047 68.0055C5.23047 80.4212 8.91216 92.5581 15.81 102.881C22.7078 113.205 32.5119 121.251 43.9825 126.002C55.4531 130.753 68.0751 131.996 80.2523 129.574C92.4294 127.152 103.615 121.173 112.394 112.394C121.173 103.615 127.152 92.4294 129.574 80.2523C131.996 68.0751 130.753 55.4531 126.002 43.9825C121.251 32.5119 113.205 22.7078 102.881 15.81C92.5581 8.91216 80.4212 5.23047 68.0055 5.23047" stroke="white" stroke-width="10.4625" stroke-linecap="round" stroke-linejoin="round"/>
<path d="M5.23047 12.207V47.082H40.1055" stroke="white" stroke-width="10.4625" stroke-linecap="round" stroke-linejoin="round"/>
<path d="M68.0039 33.1289V68.0039L88.9289 81.9539" stroke="white" stroke-width="10.4625" stroke-linecap="round" stroke-linejoin="round"/>
</svg>
