<svg width="164" height="164" viewBox="0 0 164 164" fill="none" xmlns="http://www.w3.org/2000/svg">
<path d="M109.855 40.1055H54.0555C46.3511 40.1055 40.1055 46.3511 40.1055 54.0555V109.855C40.1055 117.56 46.3511 123.805 54.0555 123.805H109.855C117.56 123.805 123.805 117.56 123.805 109.855V54.0555C123.805 46.3511 117.56 40.1055 109.855 40.1055Z" stroke="white" stroke-width="10.4625" stroke-linecap="round" stroke-linejoin="round"/>
<path d="M61.0305 5.23047V26.1555M102.88 5.23047V26.1555M61.0305 137.755V158.68M102.88 137.755V158.68M5.23047 61.0305H26.1555M5.23047 102.88H26.1555M137.755 61.0305H158.68M137.755 102.88H158.68" stroke="white" stroke-width="10.4625" stroke-linecap="round" stroke-linejoin="round"/>
<path d="M81.957 99.3945C91.5875 99.3945 99.3945 91.5875 99.3945 81.957C99.3945 72.3266 91.5875 64.5195 81.957 64.5195C72.3266 64.5195 64.5195 72.3266 64.5195 81.957C64.5195 91.5875 72.3266 99.3945 81.957 99.3945Z" stroke="white" stroke-width="10.4625" stroke-linecap="round" stroke-linejoin="round"/>
</svg>
