<svg width="40" height="40" viewBox="0 0 40 40" fill="none" xmlns="http://www.w3.org/2000/svg">
<path d="M12.5 17.5C15.2614 17.5 17.5 15.2614 17.5 12.5C17.5 9.73858 15.2614 7.5 12.5 7.5C9.73858 7.5 7.5 9.73858 7.5 12.5C7.5 15.2614 9.73858 17.5 12.5 17.5Z" fill="#90509F"/>
<path d="M27.5 17.5C30.2614 17.5 32.5 15.2614 32.5 12.5C32.5 9.73858 30.2614 7.5 27.5 7.5C24.7386 7.5 22.5 9.73858 22.5 12.5C22.5 15.2614 24.7386 17.5 27.5 17.5Z" fill="#114769"/>
<path d="M12.5 32.5C15.2614 32.5 17.5 30.2614 17.5 27.5C17.5 24.7386 15.2614 22.5 12.5 22.5C9.73858 22.5 7.5 24.7386 7.5 27.5C7.5 30.2614 9.73858 32.5 12.5 32.5Z" fill="#90509F"/>
<path d="M27.5 32.5C30.2614 32.5 32.5 30.2614 32.5 27.5C32.5 24.7386 30.2614 22.5 27.5 22.5C24.7386 22.5 22.5 24.7386 22.5 27.5C22.5 30.2614 24.7386 32.5 27.5 32.5Z" fill="#114769"/>
<path d="M12.5 12.5L27.5 27.5L12.5 12.5Z" fill="black"/>
<path d="M12.5 12.5L27.5 27.5" stroke="#90509F" stroke-width="1.25"/>
<path d="M27.5 12.5L12.5 27.5L27.5 12.5Z" fill="#90509F"/>
<path d="M27.5 12.5L12.5 27.5" stroke="#114769" stroke-width="1.25"/>
</svg>
