<svg width="20" height="20" viewBox="0 0 20 20" fill="none" xmlns="http://www.w3.org/2000/svg">
<path d="M14.9987 9.16797H4.9987C4.07822 9.16797 3.33203 9.91416 3.33203 10.8346V15.8346C3.33203 16.7551 4.07822 17.5013 4.9987 17.5013H14.9987C15.9192 17.5013 16.6654 16.7551 16.6654 15.8346V10.8346C16.6654 9.91416 15.9192 9.16797 14.9987 9.16797Z" stroke="white" stroke-width="1.66667" stroke-linecap="round" stroke-linejoin="round"/>
<path d="M6.66797 9.16667V5.83333C6.66797 4.94928 7.01916 4.10143 7.64428 3.47631C8.2694 2.85119 9.11725 2.5 10.0013 2.5C10.8854 2.5 11.7332 2.85119 12.3583 3.47631C12.9834 4.10143 13.3346 4.94928 13.3346 5.83333V9.16667" stroke="white" stroke-width="1.66667" stroke-linecap="round" stroke-linejoin="round"/>
</svg>
