<svg width="141" height="100" viewBox="0 0 141 100" fill="none" xmlns="http://www.w3.org/2000/svg">
<path d="M103.634 93.9654C111.959 93.9654 119.942 90.6585 125.828 84.7722C131.715 78.8859 135.022 70.9023 135.022 62.5779C135.022 54.2534 131.715 46.2699 125.828 40.3836C119.942 34.4973 111.959 31.1904 103.634 31.1904C100.131 22.6542 93.9042 15.5151 85.9235 10.8838C77.9427 6.25252 68.6551 4.38861 59.5054 5.58205C50.3557 6.77549 41.8569 10.9594 35.3311 17.4828C28.8053 24.0063 24.6184 32.5036 23.4217 41.6529C18.0823 43.6348 13.4773 47.2033 10.2254 51.879C6.9735 56.5548 5.23047 62.1137 5.23047 67.8091C5.23047 73.5045 6.9735 79.0635 10.2254 83.7392C13.4773 88.4149 18.0823 91.9835 23.4217 93.9654H103.634Z" stroke="white" stroke-width="10.4625" stroke-linecap="round" stroke-linejoin="round"/>
<path d="M51.3203 59.0922L65.2703 73.0422L86.1953 52.1172" stroke="white" stroke-width="10.4625" stroke-linecap="round" stroke-linejoin="round"/>
</svg>
