<svg width="20" height="20" viewBox="0 0 20 20" fill="none" xmlns="http://www.w3.org/2000/svg">
<path d="M14.5848 15.832C15.5794 15.832 16.5332 15.4369 17.2365 14.7337C17.9398 14.0304 18.3348 13.0766 18.3348 12.082C18.3348 11.0874 17.9398 10.1336 17.2365 9.43036C16.5332 8.7271 15.5794 8.33201 14.5848 8.33201C14.1663 7.31215 13.4224 6.45922 12.4689 5.9059C11.5154 5.35258 10.4057 5.12989 9.31258 5.27247C8.21943 5.41506 7.20404 5.91493 6.42438 6.69431C5.64471 7.4737 5.14448 8.48891 5.00151 9.58201C4.36358 9.8188 3.81341 10.2451 3.42489 10.8038C3.03637 11.3624 2.82812 12.0266 2.82813 12.707C2.82812 13.3875 3.03637 14.0516 3.42489 14.6102C3.81341 15.1689 4.36358 15.5952 5.00151 15.832H14.5848Z" stroke="white" stroke-width="1.66667" stroke-linecap="round" stroke-linejoin="round"/>
</svg>
