<svg width="22" height="22" viewBox="0 0 22 22" fill="none" xmlns="http://www.w3.org/2000/svg">
<path d="M8.25 2.75H3.66667C3.16041 2.75 2.75 3.16041 2.75 3.66667V8.25C2.75 8.75626 3.16041 9.16667 3.66667 9.16667H8.25C8.75626 9.16667 9.16667 8.75626 9.16667 8.25V3.66667C9.16667 3.16041 8.75626 2.75 8.25 2.75Z" stroke="white" stroke-width="1.83333" stroke-linecap="round" stroke-linejoin="round"/>
<path d="M18.3359 2.75H13.7526C13.2463 2.75 12.8359 3.16041 12.8359 3.66667V8.25C12.8359 8.75626 13.2463 9.16667 13.7526 9.16667H18.3359C18.8422 9.16667 19.2526 8.75626 19.2526 8.25V3.66667C19.2526 3.16041 18.8422 2.75 18.3359 2.75Z" stroke="white" stroke-width="1.83333" stroke-linecap="round" stroke-linejoin="round"/>
<path d="M18.3359 12.8359H13.7526C13.2463 12.8359 12.8359 13.2463 12.8359 13.7526V18.3359C12.8359 18.8422 13.2463 19.2526 13.7526 19.2526H18.3359C18.8422 19.2526 19.2526 18.8422 19.2526 18.3359V13.7526C19.2526 13.2463 18.8422 12.8359 18.3359 12.8359Z" stroke="white" stroke-width="1.83333" stroke-linecap="round" stroke-linejoin="round"/>
<path d="M8.25 12.8359H3.66667C3.16041 12.8359 2.75 13.2463 2.75 13.7526V18.3359C2.75 18.8422 3.16041 19.2526 3.66667 19.2526H8.25C8.75626 19.2526 9.16667 18.8422 9.16667 18.3359V13.7526C9.16667 13.2463 8.75626 12.8359 8.25 12.8359Z" stroke="white" stroke-width="1.83333" stroke-linecap="round" stroke-linejoin="round"/>
</svg>
