<svg width="22" height="22" viewBox="0 0 22 22" fill="none" xmlns="http://www.w3.org/2000/svg">
<path d="M16.0418 17.4156C17.1358 17.4156 18.185 16.981 18.9586 16.2074C19.7322 15.4338 20.1668 14.3846 20.1668 13.2906C20.1668 12.1966 19.7322 11.1474 18.9586 10.3738C18.185 9.6002 17.1358 9.1656 16.0418 9.1656C15.5813 8.04376 14.763 7.10553 13.7142 6.49688C12.6653 5.88823 11.4448 5.64327 10.2423 5.80011C9.03981 5.95696 7.92288 6.50681 7.06525 7.36413C6.20762 8.22146 5.65737 9.33819 5.5001 10.5406C4.79838 10.8011 4.19319 11.27 3.76582 11.8845C3.33845 12.499 3.10938 13.2296 3.10938 13.9781C3.10938 14.7266 3.33845 15.4572 3.76582 16.0717C4.19319 16.6862 4.79838 17.1551 5.5001 17.4156H16.0418Z" stroke="white" stroke-width="1.83333" stroke-linecap="round" stroke-linejoin="round"/>
</svg>
