<svg width="22" height="22" viewBox="0 0 22 22" fill="none" xmlns="http://www.w3.org/2000/svg">
<path d="M16.4974 10.082H5.4974C4.48487 10.082 3.66406 10.9028 3.66406 11.9154V17.4154C3.66406 18.4279 4.48487 19.2487 5.4974 19.2487H16.4974C17.5099 19.2487 18.3307 18.4279 18.3307 17.4154V11.9154C18.3307 10.9028 17.5099 10.082 16.4974 10.082Z" stroke="white" stroke-width="1.83333" stroke-linecap="round" stroke-linejoin="round"/>
<path d="M7.33594 10.0833V6.41667C7.33594 5.44421 7.72225 4.51158 8.40988 3.82394C9.09751 3.13631 10.0301 2.75 11.0026 2.75C11.9751 2.75 12.9077 3.13631 13.5953 3.82394C14.283 4.51158 14.6693 5.44421 14.6693 6.41667V10.0833" stroke="white" stroke-width="1.83333" stroke-linecap="round" stroke-linejoin="round"/>
</svg>
