<svg width="13" height="13" viewBox="0 0 13 13" fill="none" xmlns="http://www.w3.org/2000/svg">
<path d="M5.97688 0.0999998C6.25188 -1.65775e-07 6.55188 -1.65775e-07 6.80188 0.0999998L12.0019 2.05C12.4769 2.225 12.7769 2.675 12.7769 3.175V8.8C12.7769 9.25 12.5269 9.675 12.1269 9.875L6.92688 12.475C6.57688 12.65 6.20188 12.65 5.85188 12.475L0.651875 9.875C0.251875 9.675 0.00187492 9.25 0.00187492 8.8V3.175C0.00187492 2.675 0.301875 2.225 0.776875 2.05L5.97688 0.0999998ZM6.40188 1.65L1.60187 3.45V3.475L6.40188 5.425L11.2019 3.475V3.45L6.40188 1.65ZM7.20188 10.55L11.2019 8.55V5.2L7.20188 6.825V10.55Z" fill="#333333"/>
</svg>
