<svg width="14" height="14" viewBox="0 0 14 14" fill="none" xmlns="http://www.w3.org/2000/svg">
<path d="M12.6988 10.075C13.0488 10.45 13.0488 11.025 12.6988 11.4L11.3738 12.725C10.9988 13.075 10.4238 13.075 10.0488 12.725L7.12375 9.775C6.54875 9.2 6.44875 8.35 6.77375 7.65L4.12375 4.975H2.57375L0.17375 1.775L1.77375 0.175L4.97375 2.575V4.15L7.62375 6.8C8.32375 6.45 9.17375 6.575 9.77375 7.15L12.6988 10.075ZM8.44875 5.8C8.24875 5.8 8.04875 5.825 7.84875 5.875L5.77375 3.825C5.77375 2.9 6.09875 1.95 6.82375 1.25C7.74875 0.325 9.04875 -1.69501e-07 10.2238 0.3C10.4488 0.35 10.5488 0.625 10.3738 0.8L8.52375 2.65L8.79875 4.35L10.4988 4.65L12.3488 2.775C12.5238 2.625 12.7988 2.7 12.8488 2.925C13.1488 4.1 12.8238 5.4 11.8988 6.325C11.5738 6.65 11.1988 6.9 10.8238 7.075L10.3238 6.575C9.82375 6.075 9.17375 5.8 8.44875 5.8ZM5.84875 7.85C5.72375 8.4 5.79875 8.925 5.97375 9.425L2.89875 12.525C2.27375 13.15 1.24875 13.15 0.62375 12.525C-0.00125008 11.9 -0.00125008 10.875 0.62375 10.25L4.44875 6.45L5.84875 7.85ZM1.77375 11.975C2.09875 11.975 2.37375 11.725 2.37375 11.375C2.37375 11.05 2.09875 10.775 1.77375 10.775C1.42375 10.775 1.17375 11.05 1.17375 11.375C1.17375 11.725 1.42375 11.975 1.77375 11.975Z" fill="#333333"/>
</svg>
