<svg width="13" height="13" viewBox="0 0 13 13" fill="none" xmlns="http://www.w3.org/2000/svg">
<path d="M11.4012 10.0992C12.1262 11.2742 11.2762 12.7992 9.90125 12.7992H2.22625C0.85125 12.7992 0.00124969 11.2742 0.72625 10.0992L3.67625 5.37422V1.59922H3.47625C3.12625 1.59922 2.87625 1.34922 2.87625 0.999219V0.599219C2.87625 0.274219 3.12625 -0.000781417 3.47625 -0.000781417H8.67625C9.00125 -0.000781417 9.27625 0.274219 9.27625 0.599219V0.999219C9.27625 1.34922 9.00125 1.59922 8.67625 1.59922H8.47625V5.37422L11.4012 10.0992ZM3.90125 7.99922H8.20125L7.00125 6.07422C6.92625 5.94922 6.85125 5.77422 6.85125 5.59922V1.59922H5.25125V5.59922C5.25125 5.77422 5.20125 5.94922 5.12625 6.07422L3.90125 7.99922Z" fill="#333333"/>
</svg>
