<svg width="20" height="20" viewBox="0 0 20 20" fill="none" xmlns="http://www.w3.org/2000/svg">
<path d="M7.5 9.16797C8.88071 9.16797 10 8.04868 10 6.66797C10 5.28726 8.88071 4.16797 7.5 4.16797C6.11929 4.16797 5 5.28726 5 6.66797C5 8.04868 6.11929 9.16797 7.5 9.16797Z" stroke="white" stroke-width="1.66667" stroke-linecap="round" stroke-linejoin="round"/>
<path d="M2.5 16.668C2.5 15.3419 3.02678 14.0701 3.96447 13.1324C4.90215 12.1948 6.17392 11.668 7.5 11.668C8.82608 11.668 10.0979 12.1948 11.0355 13.1324C11.9732 14.0701 12.5 15.3419 12.5 16.668" stroke="white" stroke-width="1.66667" stroke-linecap="round" stroke-linejoin="round"/>
<path d="M13.332 5C13.9951 5 14.631 5.26339 15.0998 5.73223C15.5686 6.20107 15.832 6.83696 15.832 7.5C15.832 8.16304 15.5686 8.79893 15.0998 9.26777C14.631 9.73661 13.9951 10 13.332 10M17.4987 16.6667C17.4955 15.4874 17.0756 14.3471 16.3132 13.4475C15.5507 12.5478 14.4948 11.9465 13.332 11.75" stroke="white" stroke-width="1.66667" stroke-linecap="round" stroke-linejoin="round"/>
</svg>
