<svg width="41" height="43" viewBox="0 0 41 43" fill="none" xmlns="http://www.w3.org/2000/svg">
<path d="M1.40625 41.2439C1.40625 33.042 9.60812 28.3553 20.1534 28.3553C30.6987 28.3553 38.9005 33.042 38.9005 41.2439M20.1534 1.40625C19.0763 1.40625 18.0098 1.6184 17.0147 2.03058C16.0196 2.44276 15.1154 3.04691 14.3538 3.80852C13.5922 4.57014 12.988 5.47431 12.5758 6.4694C12.1637 7.4645 11.9515 8.53104 11.9515 9.60812C11.9515 10.6852 12.1637 11.7517 12.5758 12.7468C12.988 13.7419 13.5922 14.6461 14.3538 15.4077C15.1154 16.1693 16.0196 16.7735 17.0147 17.1857C18.0098 17.5978 19.0763 17.81 20.1534 17.81C22.3287 17.81 24.4148 16.9459 25.953 15.4077C27.4911 13.8696 28.3553 11.7834 28.3553 9.60812C28.3553 7.43285 27.4911 5.34667 25.953 3.80852C24.4148 2.27037 22.3287 1.40625 20.1534 1.40625Z" stroke="white" stroke-width="2.81207" stroke-linecap="round"/>
</svg>
