<svg width="57" height="27" viewBox="0 0 57 27" fill="none" xmlns="http://www.w3.org/2000/svg">
<path d="M1.28906 15.3494H31.7532V1.28906H45.8135L55.1871 10.6626V15.3494H50.5003M8.31924 24.723C9.2515 24.723 10.1456 24.3526 10.8048 23.6934C11.464 23.0342 11.8343 22.1402 11.8343 21.2079C11.8343 20.2756 11.464 19.3816 10.8048 18.7224C10.1456 18.0631 9.2515 17.6928 8.31924 17.6928C7.38698 17.6928 6.4929 18.0631 5.8337 18.7224C5.17449 19.3816 4.80415 20.2756 4.80415 21.2079C4.80415 22.1402 5.17449 23.0342 5.8337 23.6934C6.4929 24.3526 7.38698 24.723 8.31924 24.723ZM41.1267 24.723C42.059 24.723 42.9531 24.3526 43.6123 23.6934C44.2715 23.0342 44.6418 22.1402 44.6418 21.2079C44.6418 20.2756 44.2715 19.3816 43.6123 18.7224C42.9531 18.0631 42.059 17.6928 41.1267 17.6928C40.1945 17.6928 39.3004 18.0631 38.6412 18.7224C37.982 19.3816 37.6116 20.2756 37.6116 21.2079C37.6116 22.1402 37.982 23.0342 38.6412 23.6934C39.3004 24.3526 40.1945 24.723 41.1267 24.723Z" stroke="#90509F" stroke-width="2.57773" stroke-linecap="round"/>
</svg>
