<svg width="55" height="48" viewBox="0 0 55 48" fill="none" xmlns="http://www.w3.org/2000/svg">
<path d="M49.4992 28.3125C49.218 29.3438 48.2805 30 47.2492 30H19.7805L20.4367 33H45.5617C46.968 33 48.093 34.4062 47.718 35.8125L47.2492 38.0625C49.0305 38.9062 50.2492 40.6875 50.2492 42.75C50.2492 45.6562 47.8117 48 44.9992 48C42.093 48 39.7492 45.6562 39.7492 42.75C39.7492 41.3438 40.3117 40.0312 41.2492 39H21.6555C22.593 40.0312 23.2492 41.3438 23.2492 42.75C23.2492 45.6562 20.8117 48 17.9992 48C15.093 48 12.7492 45.6562 12.7492 42.75C12.7492 40.875 13.7805 39.1875 15.3742 38.25L8.71797 6H2.24922C0.93672 6 -0.000780106 5.0625 -0.000780106 3.75V2.25C-0.000780106 1.03125 0.93672 0 2.24922 0H11.8117C12.843 0 13.7805 0.84375 14.0617 1.875L14.9055 6H51.6555C53.1555 6 54.1867 7.40625 53.9055 8.8125L49.4992 28.3125Z" fill="#114769"/>
</svg>
