<svg width="51" height="44" viewBox="0 0 51 44" fill="none" xmlns="http://www.w3.org/2000/svg">
<path d="M31.218 21.0938L33.2805 25.2188H43.4992L26.343 42.75C25.6867 43.4062 24.6555 43.4062 23.9992 42.75L6.84297 25.2188H15.6555L18.468 18.5625L23.8117 30.375C24.3742 31.5 25.968 31.5938 26.5305 30.4688L31.218 21.0938ZM45.5617 5.15625C50.1555 9.84375 50.343 17.25 46.3117 22.2188H35.1555L32.5305 17.0625C31.968 15.9375 30.3742 15.9375 29.8117 17.0625L25.218 26.25L19.7805 14.1562C19.218 12.9375 17.5305 12.9375 17.0617 14.1562L13.6867 22.2188H4.12422C-0.000780106 17.25 0.18672 9.84375 4.78047 5.15625L4.96797 4.96875C9.84297 0 17.718 0 22.593 4.96875L25.218 7.59375L27.7492 4.96875C32.6242 0 40.4992 0 45.3742 4.96875L45.5617 5.15625Z" fill="#114769"/>
</svg>
