<svg width="62" height="37" viewBox="0 0 62 37" fill="none" xmlns="http://www.w3.org/2000/svg">
<path d="M58.8758 8.53125C61.032 9.1875 61.032 12.0938 58.8758 12.75L32.7195 20.8125C30.8445 21.375 29.157 21.0938 28.3133 20.8125L10.032 15.1875C8.81328 15.9375 8.15703 17.25 8.06328 18.6562C8.90703 19.125 9.56328 20.0625 9.56328 21.0938C9.56328 22.125 9.00078 22.9688 8.25078 23.5312L10.5945 34.3125C10.782 35.25 10.1258 36.0938 9.18828 36.0938H3.84453C2.90703 36.0938 2.25078 35.25 2.43828 34.3125L4.78203 23.5312C4.03203 22.9688 3.56328 22.125 3.56328 21.0938C3.56328 20.0625 4.12578 19.125 5.06328 18.5625C5.15703 16.9688 5.71953 15.375 6.75078 14.1562L2.15703 12.75C0.000782013 12.0938 0.000782013 9.1875 2.15703 8.53125L28.3133 0.46875C29.7195 0 31.3133 0 32.7195 0.46875L58.8758 8.53125ZM33.5633 23.7188L47.157 19.5L48.5633 30.0938C48.5633 33.4688 40.5008 36.0938 30.5633 36.0938C20.532 36.0938 12.5633 33.4688 12.5633 30.0938L13.8758 19.5L27.4695 23.7188C28.5945 24.0938 30.9383 24.4688 33.5633 23.7188Z" fill="#114769"/>
</svg>
