<svg width="50" height="50" viewBox="0 0 50 50" fill="none" xmlns="http://www.w3.org/2000/svg">
<path d="M1.35938 24.9284C1.35938 37.9365 11.9203 48.4974 24.9284 48.4974C37.9365 48.4974 48.4974 37.9365 48.4974 24.9284C48.4974 11.9203 37.9365 1.35938 24.9284 1.35938C11.9203 1.35938 1.35938 11.9203 1.35938 24.9284Z" fill="white"/>
<path d="M1.35938 24.9284C1.35938 37.9365 11.9203 48.4974 24.9284 48.4974C37.9365 48.4974 48.4974 37.9365 48.4974 24.9284C48.4974 11.9203 37.9365 1.35938 24.9284 1.35938C11.9203 1.35938 1.35938 11.9203 1.35938 24.9284V24.9284" stroke="url(#paint0_linear_3434_29)" stroke-width="2.7195"/>
<path d="M19.0397 24.0234H30.8242C32.075 24.0234 33.0904 25.0389 33.0904 26.2897V33.5417C33.0904 34.7925 32.075 35.8079 30.8242 35.8079H19.0397C17.7889 35.8079 16.7734 34.7925 16.7734 33.5417V26.2897C16.7734 25.0389 17.7889 24.0234 19.0397 24.0234V24.0234" stroke="#6366F1" stroke-width="2.3569"/>
<path d="M20.3984 24.0257V20.3997C20.3984 17.8981 22.4294 15.8672 24.9309 15.8672C27.4325 15.8672 29.4634 17.8981 29.4634 20.3997V24.0257" stroke="#6366F1" stroke-width="2.3569"/>
<defs>
<linearGradient id="paint0_linear_3434_29" x1="1.35938" y1="1.35938" x2="55.606" y2="37.962" gradientUnits="userSpaceOnUse">
<stop stop-color="#7C3AED"/>
<stop offset="1" stop-color="#6366F1"/>
</linearGradient>
</defs>
</svg>
