<svg width="50" height="50" viewBox="0 0 50 50" fill="none" xmlns="http://www.w3.org/2000/svg">
<path d="M1.35938 24.9284C1.35938 37.9365 11.9203 48.4974 24.9284 48.4974C37.9365 48.4974 48.4974 37.9365 48.4974 24.9284C48.4974 11.9203 37.9365 1.35938 24.9284 1.35938C11.9203 1.35938 1.35938 11.9203 1.35938 24.9284Z" fill="white"/>
<path d="M1.35938 24.9284C1.35938 37.9365 11.9203 48.4974 24.9284 48.4974C37.9365 48.4974 48.4974 37.9365 48.4974 24.9284C48.4974 11.9203 37.9365 1.35938 24.9284 1.35938C11.9203 1.35938 1.35938 11.9203 1.35938 24.9284V24.9284" stroke="url(#paint0_linear_3434_38)" stroke-width="2.7195"/>
<path d="M15.8594 22.2127C15.8594 25.7149 18.7027 28.5582 22.2049 28.5582C25.7071 28.5582 28.5504 25.7149 28.5504 22.2127C28.5504 18.7105 25.7071 15.8672 22.2049 15.8672C18.7027 15.8672 15.8594 18.7105 15.8594 22.2127V22.2127" stroke="#6366F1" stroke-width="2.3569"/>
<path d="M26.7422 26.7422L33.0877 33.0877L26.7422 26.7422Z" fill="black"/>
<path d="M26.7422 26.7422L33.0877 33.0877L26.7422 26.7422" stroke="#6366F1" stroke-width="2.3569" stroke-linecap="round"/>
<defs>
<linearGradient id="paint0_linear_3434_38" x1="1.35938" y1="1.35938" x2="55.606" y2="37.962" gradientUnits="userSpaceOnUse">
<stop stop-color="#6366F1"/>
<stop offset="1" stop-color="#7C3AED"/>
</linearGradient>
</defs>
</svg>
