<svg width="20" height="20" viewBox="0 0 20 20" fill="none" xmlns="http://www.w3.org/2000/svg">
<path d="M4.9974 7.08464C6.14799 7.08464 7.08073 6.1519 7.08073 5.0013C7.08073 3.85071 6.14799 2.91797 4.9974 2.91797C3.8468 2.91797 2.91406 3.85071 2.91406 5.0013C2.91406 6.1519 3.8468 7.08464 4.9974 7.08464Z" stroke="#4F46E5" stroke-width="1.66667" stroke-linecap="round" stroke-linejoin="round"/>
<path d="M14.9974 7.08464C16.148 7.08464 17.0807 6.1519 17.0807 5.0013C17.0807 3.85071 16.148 2.91797 14.9974 2.91797C13.8468 2.91797 12.9141 3.85071 12.9141 5.0013C12.9141 6.1519 13.8468 7.08464 14.9974 7.08464Z" stroke="#4F46E5" stroke-width="1.66667" stroke-linecap="round" stroke-linejoin="round"/>
<path d="M9.9974 17.0846C11.148 17.0846 12.0807 16.1519 12.0807 15.0013C12.0807 13.8507 11.148 12.918 9.9974 12.918C8.8468 12.918 7.91406 13.8507 7.91406 15.0013C7.91406 16.1519 8.8468 17.0846 9.9974 17.0846Z" stroke="#4F46E5" stroke-width="1.66667" stroke-linecap="round" stroke-linejoin="round"/>
<path d="M5 7.08203V8.7487C5 9.19073 5.17559 9.61465 5.48816 9.92721C5.80072 10.2398 6.22464 10.4154 6.66667 10.4154H8.33333M15 7.08203V8.7487C15 9.19073 14.8244 9.61465 14.5118 9.92721C14.1993 10.2398 13.7754 10.4154 13.3333 10.4154H11.6667" stroke="#4F46E5" stroke-width="1.66667" stroke-linecap="round" stroke-linejoin="round"/>
</svg>
