<svg width="123" height="137" viewBox="0 0 123 137" fill="none" xmlns="http://www.w3.org/2000/svg">
<path d="M61.0305 47.0805C91.848 47.0805 116.83 37.712 116.83 26.1555C116.83 14.5989 91.848 5.23047 61.0305 5.23047C30.213 5.23047 5.23047 14.5989 5.23047 26.1555C5.23047 37.712 30.213 47.0805 61.0305 47.0805Z" stroke="white" stroke-width="10.4625" stroke-linecap="round" stroke-linejoin="round"/>
<path d="M5.23047 26.1562V68.0062C5.23047 79.8637 30.3405 88.9312 61.0305 88.9312C91.7205 88.9312 116.83 79.8637 116.83 68.0062V26.1562" stroke="white" stroke-width="10.4625" stroke-linecap="round" stroke-linejoin="round"/>
<path d="M5.23047 68.0039V109.854C5.23047 121.711 30.3405 130.779 61.0305 130.779C91.7205 130.779 116.83 121.711 116.83 109.854V68.0039" stroke="white" stroke-width="10.4625" stroke-linecap="round" stroke-linejoin="round"/>
</svg>
