<svg width="62" height="37" viewBox="0 0 62 37" fill="none" xmlns="http://www.w3.org/2000/svg">
<path d="M58.875 8.53125C61.0312 9.1875 61.0312 12.0938 58.875 12.75L32.7187 20.8125C30.8437 21.375 29.1562 21.0938 28.3125 20.8125L10.0312 15.1875C8.81249 15.9375 8.15624 17.25 8.06249 18.6562C8.90624 19.125 9.56249 20.0625 9.56249 21.0938C9.56249 22.125 8.99999 22.9688 8.24999 23.5312L10.5937 34.3125C10.7812 35.25 10.125 36.0938 9.18749 36.0938H3.84374C2.90624 36.0938 2.24999 35.25 2.43749 34.3125L4.78124 23.5312C4.03124 22.9688 3.56249 22.125 3.56249 21.0938C3.56249 20.0625 4.12499 19.125 5.06249 18.5625C5.15624 16.9688 5.71874 15.375 6.74999 14.1562L2.15624 12.75C-1.14441e-05 12.0938 -1.14441e-05 9.1875 2.15624 8.53125L28.3125 0.46875C29.7187 0 31.3125 0 32.7187 0.46875L58.875 8.53125ZM33.5625 23.7188L47.1562 19.5L48.5625 30.0938C48.5625 33.4688 40.5 36.0938 30.5625 36.0938C20.5312 36.0938 12.5625 33.4688 12.5625 30.0938L13.875 19.5L27.4687 23.7188C28.5937 24.0938 30.9375 24.4688 33.5625 23.7188Z" fill="#114769"/>
</svg>
