<svg width="55" height="48" viewBox="0 0 55 48" fill="none" xmlns="http://www.w3.org/2000/svg">
<path d="M49.5 28.3125C49.2187 29.3438 48.2812 30 47.25 30H19.7812L20.4375 33H45.5625C46.9687 33 48.0937 34.4062 47.7187 35.8125L47.25 38.0625C49.0312 38.9062 50.25 40.6875 50.25 42.75C50.25 45.6562 47.8125 48 45 48C42.0937 48 39.75 45.6562 39.75 42.75C39.75 41.3438 40.3125 40.0312 41.25 39H21.6562C22.5937 40.0312 23.25 41.3438 23.25 42.75C23.25 45.6562 20.8125 48 18 48C15.0937 48 12.75 45.6562 12.75 42.75C12.75 40.875 13.7812 39.1875 15.375 38.25L8.7187 6H2.24995C0.937452 6 -4.76837e-05 5.0625 -4.76837e-05 3.75V2.25C-4.76837e-05 1.03125 0.937452 0 2.24995 0H11.8125C12.8437 0 13.7812 0.84375 14.0625 1.875L14.9062 6H51.6562C53.1562 6 54.1875 7.40625 53.9062 8.8125L49.5 28.3125Z" fill="#114769"/>
</svg>
