<svg width="51" height="44" viewBox="0 0 51 44" fill="none" xmlns="http://www.w3.org/2000/svg">
<path d="M31.2188 21.0938L33.2813 25.2188H43.5L26.3438 42.75C25.6875 43.4062 24.6563 43.4062 24 42.75L6.84376 25.2188H15.6563L18.4688 18.5625L23.8125 30.375C24.375 31.5 25.9688 31.5938 26.5313 30.4688L31.2188 21.0938ZM45.5625 5.15625C50.1563 9.84375 50.3438 17.25 46.3125 22.2188H35.1563L32.5313 17.0625C31.9688 15.9375 30.375 15.9375 29.8125 17.0625L25.2188 26.25L19.7813 14.1562C19.2188 12.9375 17.5313 12.9375 17.0625 14.1562L13.6875 22.2188H4.12501C1.33514e-05 17.25 0.187513 9.84375 4.78126 5.15625L4.96876 4.96875C9.84376 0 17.7188 0 22.5938 4.96875L25.2188 7.59375L27.75 4.96875C32.625 0 40.5 0 45.375 4.96875L45.5625 5.15625Z" fill="#114769"/>
</svg>
